<?xml version="1.0" encoding="utf-8"?>
<svg width="550" height="89" viewBox="0 0 550 89" fill="none" xmlns="http://www.w3.org/2000/svg">
<g clip-path="url(#clip0)">
<path opacity="0.8" d="M549.999 -0.463135H-0.710693V88.9997H549.999V-0.463135Z" fill="black"/>
<path d="M103.95 60.5553C103.95 61.0753 104.366 61.5433 104.938 61.5433H106.914C107.434 61.5433 107.902 61.0753 107.902 60.5553V48.3353H116.482C122.826 48.3353 128.078 43.0833 128.078 36.6353C128.078 30.3433 122.826 25.1433 116.43 25.1433H104.938C104.366 25.1433 103.95 25.6113 103.95 26.1313V60.5553ZM107.902 44.4873V29.0953H116.17C120.434 29.0953 124.074 32.3193 124.074 36.5313C124.074 41.0033 120.434 44.4873 116.17 44.4873H107.902ZM129.776 51.0913C129.776 57.0713 134.352 62.0633 140.124 62.0633C145.896 62.0633 150.472 57.0713 150.472 51.0913C150.472 45.2153 145.896 40.2233 140.124 40.2233C134.352 40.2233 129.776 45.2153 129.776 51.0913ZM133.364 51.0913C133.364 46.9833 136.328 43.6553 140.124 43.6553C143.92 43.6553 146.884 46.9833 146.884 51.0913C146.884 55.3033 143.92 58.6833 140.124 58.6833C136.328 58.6833 133.364 55.3033 133.364 51.0913ZM160.166 61.5433C160.27 61.8553 160.582 62.0633 161.05 62.0633H161.31C161.778 62.0633 162.09 61.8033 162.194 61.5433L168.33 45.9433L174.674 61.5433C174.778 61.8033 175.09 62.0633 175.558 62.0633H175.818C176.234 62.0633 176.598 61.8553 176.702 61.5433L182.37 41.9393C182.578 41.2113 182.37 40.7433 181.59 40.7433H179.978C179.562 40.7433 179.198 41.0033 179.094 41.3153L175.35 55.0953H175.298L169.474 40.7433C169.37 40.4833 169.058 40.2233 168.59 40.2233H168.33C167.862 40.2233 167.55 40.4833 167.446 40.7433L161.57 55.0433H161.518L157.722 41.3153C157.618 41.0033 157.254 40.7433 156.786 40.7433H155.174C154.394 40.7433 154.186 41.2113 154.394 41.9393L160.166 61.5433ZM186.245 51.1433C186.245 57.1233 190.145 62.0633 196.437 62.0633C200.025 62.0633 202.833 60.6593 204.081 59.6713C204.861 59.0993 204.653 58.7873 204.289 58.3193C203.977 57.9033 203.717 57.5393 203.405 57.1233C202.989 56.5513 202.677 56.8113 201.949 57.2273C200.753 57.9553 198.985 58.7873 196.801 58.7873C193.109 58.7873 190.041 55.5113 189.833 52.0273H204.809C205.277 52.0273 205.693 51.6633 205.745 51.1433C205.797 50.7793 205.849 50.1033 205.849 49.7393C205.849 44.2793 201.897 40.2233 196.437 40.2233C190.145 40.2233 186.245 45.2673 186.245 51.1433ZM189.885 49.1153C190.249 45.8913 192.953 43.3953 196.437 43.3953C199.609 43.3953 202.105 46.0993 202.261 49.1153H189.885ZM211.518 60.5553C211.518 61.0753 211.986 61.5433 212.506 61.5433H214.118C214.638 61.5433 215.106 61.0753 215.106 60.5553V46.6713C215.106 46.6713 216.822 43.7593 220.774 43.7593C221.554 43.7593 222.334 43.9673 222.802 44.1753C223.322 44.3833 223.79 44.3833 224.05 43.7073L224.674 41.9393C225.194 40.4833 222.594 40.2233 221.034 40.2233C216.718 40.2233 214.794 42.9793 214.794 42.9793L214.378 41.4713C214.274 41.0033 213.91 40.7433 213.494 40.7433H212.506C211.986 40.7433 211.518 41.2113 211.518 41.7313V60.5553ZM227.225 51.1433C227.225 57.1233 231.125 62.0633 237.417 62.0633C241.005 62.0633 243.813 60.6593 245.061 59.6713C245.841 59.0993 245.633 58.7873 245.269 58.3193C244.957 57.9033 244.697 57.5393 244.385 57.1233C243.969 56.5513 243.657 56.8113 242.929 57.2273C241.733 57.9553 239.965 58.7873 237.781 58.7873C234.089 58.7873 231.021 55.5113 230.813 52.0273H245.789C246.257 52.0273 246.673 51.6633 246.725 51.1433C246.777 50.7793 246.829 50.1033 246.829 49.7393C246.829 44.2793 242.877 40.2233 237.417 40.2233C231.125 40.2233 227.225 45.2673 227.225 51.1433ZM230.865 49.1153C231.229 45.8913 233.933 43.3953 237.417 43.3953C240.589 43.3953 243.085 46.0993 243.241 49.1153H230.865ZM250.991 51.0913C250.991 57.0713 255.151 62.0633 260.455 62.0633C264.355 62.0633 266.851 59.3073 266.851 59.3073L267.163 60.7113C267.267 61.1793 267.579 61.5433 268.047 61.5433H269.139C269.659 61.5433 270.127 61.0753 270.127 60.5553V26.1313C270.127 25.6113 269.659 25.1433 269.139 25.1433H267.527C267.007 25.1433 266.539 25.6113 266.539 26.1313V41.5753C266.539 41.5753 264.407 40.2233 260.975 40.2233C254.735 40.2233 250.991 45.0073 250.991 51.0913ZM254.631 51.1433C254.631 46.9833 256.919 43.7073 261.443 43.7073C264.303 43.7073 266.487 44.9553 266.487 44.9553V55.3553C266.487 55.3553 264.563 58.7873 260.819 58.7873C257.023 58.7873 254.631 55.1993 254.631 51.1433ZM289.164 60.5553C289.164 61.0753 289.632 61.5433 290.152 61.5433H291.244C291.712 61.5433 292.024 61.1793 292.128 60.7113L292.44 59.3073C292.44 59.3073 294.936 62.0633 298.836 62.0633C304.14 62.0633 308.3 57.0713 308.3 51.0913C308.3 45.0073 304.556 40.2233 298.316 40.2233C294.884 40.2233 292.752 41.5753 292.752 41.5753V26.1313C292.752 25.6113 292.284 25.1433 291.764 25.1433H290.152C289.632 25.1433 289.164 25.6113 289.164 26.1313V60.5553ZM292.804 55.3553V44.9553C292.804 44.9553 294.988 43.7073 297.848 43.7073C302.372 43.7073 304.66 46.9833 304.66 51.1433C304.66 55.1993 302.268 58.7873 298.472 58.7873C294.728 58.7873 292.804 55.3553 292.804 55.3553ZM320.906 61.4913L314.25 75.8433C313.886 76.5713 314.302 77.1433 315.082 77.1433H317.006C317.37 77.1433 317.734 76.8313 317.89 76.5193L333.854 41.9393C334.218 41.2633 333.854 40.7433 333.074 40.7433H331.098C330.734 40.7433 330.37 41.0033 330.214 41.3153L322.934 57.2273H322.882L315.186 41.3153C315.03 41.0033 314.718 40.7433 314.302 40.7433H312.014C311.234 40.7433 310.922 41.2113 311.234 41.8873L320.906 61.4913ZM351.56 60.5553C351.56 61.0753 351.976 61.5433 352.548 61.5433H354.576C355.096 61.5433 355.564 61.0753 355.564 60.5553V46.3593H370.488C371.008 46.3593 371.476 45.8913 371.476 45.3713V43.8633C371.476 43.3433 371.008 42.8753 370.488 42.8753H355.564V28.6273H373.036C373.608 28.6273 374.024 28.1593 374.024 27.6393V26.1313C374.024 25.6113 373.608 25.1433 373.036 25.1433H352.548C351.976 25.1433 351.56 25.6113 351.56 26.1313V60.5553ZM380.508 31.1233C381.912 31.1233 383.004 30.0313 383.004 28.6793C383.004 27.2753 381.912 26.1833 380.508 26.1833C379.156 26.1833 378.064 27.2753 378.064 28.6793C378.064 30.0313 379.156 31.1233 380.508 31.1233ZM378.792 60.5553C378.792 61.0753 379.26 61.5433 379.78 61.5433H381.392C381.912 61.5433 382.38 61.0753 382.38 60.5553V41.7313C382.38 41.2113 381.912 40.7433 381.392 40.7433H379.78C379.26 40.7433 378.792 41.2113 378.792 41.7313V60.5553ZM389.76 60.5553C389.76 61.0753 390.228 61.5433 390.748 61.5433H392.36C392.88 61.5433 393.348 61.0753 393.348 60.5553V46.6713C393.348 46.6713 396.156 43.7073 400.056 43.7073C402.968 43.7073 404.736 45.6313 404.736 49.5833V60.5553C404.736 61.0753 405.204 61.5433 405.724 61.5433H407.388C407.908 61.5433 408.376 61.0753 408.376 60.5553V49.5833C408.376 44.1753 406.348 40.2233 400.316 40.2233C396 40.2233 393.036 42.9793 393.036 42.9793L392.568 41.3673C392.464 40.9513 392.204 40.7433 391.736 40.7433H390.748C390.228 40.7433 389.76 41.2113 389.76 41.7313V60.5553ZM413.998 55.2513C413.998 59.4113 416.754 62.0633 420.394 62.0633C423.618 62.0633 425.75 60.4513 426.842 59.3593L427.258 60.7633C427.414 61.2313 427.57 61.5433 428.142 61.5433H429.13C429.65 61.5433 430.118 61.0753 430.118 60.5553V49.0113C430.118 42.9273 428.818 40.2233 423.514 40.2233C419.614 40.2233 416.598 41.4193 416.286 41.5753C415.818 41.7833 415.506 42.0953 415.714 42.7193L416.13 44.0193C416.286 44.4873 416.598 44.7473 417.118 44.5393C418.054 44.1753 420.498 43.3953 423.358 43.3953C426.322 43.3953 426.79 45.1633 426.738 49.0113C426.738 49.0113 424.554 48.3353 422.318 48.3353C416.962 48.3353 413.998 51.2993 413.998 55.2513ZM417.326 55.2513C417.326 52.5473 419.406 51.0913 422.318 51.0913C424.606 51.0913 426.062 51.5593 426.686 51.9233V56.0313C425.802 57.3313 423.566 58.9433 420.966 58.9433C418.73 58.9433 417.326 57.3313 417.326 55.2513ZM437.394 60.5553C437.394 61.0753 437.862 61.5433 438.382 61.5433H439.994C440.514 61.5433 440.982 61.0753 440.982 60.5553V26.1313C440.982 25.6113 440.514 25.1433 439.994 25.1433H438.382C437.862 25.1433 437.394 25.6113 437.394 26.1313V60.5553ZM447.425 59.7233C448.569 60.6073 450.701 62.0633 454.185 62.0633C458.449 62.0633 461.361 59.2033 461.361 56.1873C461.361 52.4433 458.137 50.8313 454.549 49.1153C452.417 48.0753 450.701 47.2953 450.701 45.5793C450.701 44.6953 451.325 43.4993 453.665 43.4993C455.589 43.4993 457.825 44.7473 457.825 44.7473C458.293 45.0073 459.021 44.8513 459.333 44.2793L459.749 43.4473C460.061 42.8753 459.905 42.1473 459.437 41.8353C458.449 41.1593 456.369 40.2233 453.665 40.2233C448.829 40.2233 447.061 43.4473 447.061 45.6313C447.061 49.1673 450.233 50.9873 452.989 52.3393C456.005 53.8473 457.565 54.6793 457.565 56.4993C457.565 57.9033 456.317 58.9953 454.185 58.9953C451.533 58.9953 449.297 57.1753 449.297 57.1753C448.725 56.8113 448.153 56.9153 447.893 57.3313C447.737 57.5913 447.373 58.3193 447.165 58.6313C447.009 58.9953 447.165 59.5153 447.425 59.7233ZM468.664 31.1233C470.068 31.1233 471.16 30.0313 471.16 28.6793C471.16 27.2753 470.068 26.1833 468.664 26.1833C467.312 26.1833 466.22 27.2753 466.22 28.6793C466.22 30.0313 467.312 31.1233 468.664 31.1233ZM466.948 60.5553C466.948 61.0753 467.416 61.5433 467.936 61.5433H469.548C470.068 61.5433 470.536 61.0753 470.536 60.5553V41.7313C470.536 41.2113 470.068 40.7433 469.548 40.7433H467.936C467.416 40.7433 466.948 41.2113 466.948 41.7313V60.5553ZM479.269 56.3433C479.269 59.5673 479.893 62.0633 484.053 62.0633C486.497 62.0633 489.305 60.7633 490.033 60.2953C490.605 59.9313 490.761 59.6193 490.397 58.9953L489.617 57.6953C489.357 57.2793 489.149 56.9673 488.369 57.3833C487.693 57.7473 485.873 58.5273 484.573 58.5273C483.377 58.5273 482.857 58.1113 482.857 56.0313V43.8633H488.889C489.461 43.8633 489.877 43.3953 489.877 42.8753V41.7313C489.877 41.1593 489.461 40.7433 488.889 40.7433H482.857V34.8673C482.857 34.3473 482.441 33.8793 481.921 33.8793L480.257 33.9833C479.737 33.9833 479.269 34.4513 479.269 34.9713V40.7433H476.617C476.045 40.7433 475.629 41.1593 475.629 41.7313V42.8753C475.629 43.3953 476.045 43.8633 476.617 43.8633H479.269V56.3433ZM494.182 51.1433C494.182 57.1233 498.082 62.0633 504.374 62.0633C507.962 62.0633 510.77 60.6593 512.018 59.6713C512.798 59.0993 512.59 58.7873 512.226 58.3193C511.914 57.9033 511.654 57.5393 511.342 57.1233C510.926 56.5513 510.614 56.8113 509.886 57.2273C508.69 57.9553 506.922 58.7873 504.738 58.7873C501.046 58.7873 497.978 55.5113 497.77 52.0273H512.746C513.214 52.0273 513.63 51.6633 513.682 51.1433C513.734 50.7793 513.786 50.1033 513.786 49.7393C513.786 44.2793 509.834 40.2233 504.374 40.2233C498.082 40.2233 494.182 45.2673 494.182 51.1433ZM497.822 49.1153C498.186 45.8913 500.89 43.3953 504.374 43.3953C507.546 43.3953 510.042 46.0993 510.198 49.1153H497.822Z" fill="white"/>
<g clip-path="url(#clip1)">
<path d="M80.9296 33.1717L56.7091 13.4938C55.8771 12.7209 54.7831 12.2881 53.6584 12.2881C52.5645 12.2881 51.5168 12.69 50.7618 13.3856L26.3101 33.2799L26.0944 33.4963C24.5075 35.2276 24.5075 37.84 26.1869 39.664L50.6539 58.7854C51.4705 59.512 52.5337 59.9139 53.6122 59.9139C54.7061 59.9139 55.7538 59.5119 56.5396 58.8163L65.8149 51.4893L61.9476 48.3514L53.5968 54.9364L30.0388 36.5415L53.6738 17.2964L77.1548 36.356L65.969 45.167L69.8362 48.305L72.5942 46.1254L80.8064 39.6795L80.9913 39.5094C81.8233 38.6747 82.2855 37.5463 82.2855 36.356C82.2855 35.1812 81.8387 34.0528 80.9296 33.1717Z" fill="white"/>
<path d="M80.9296 51.072L56.7091 31.3941C55.8771 30.6212 54.7831 30.1884 53.6584 30.1884C52.5644 30.1884 51.5167 30.5903 50.7618 31.2859L41.3016 38.9839L45.2459 42.06L53.6892 35.1967L77.1702 54.2563L53.6276 72.8058L30.0695 54.4109L41.3016 45.2753L37.3573 42.1991L26.3255 51.1647L26.1098 51.3811C24.5229 53.1124 24.5229 55.7248 26.2023 57.5488L50.6693 76.6702C51.4859 77.3968 52.549 77.7987 53.6276 77.7987C54.7215 77.7987 55.7692 77.3968 56.555 76.7012L72.6096 64.0257L80.8217 57.5797L81.0066 57.4097C81.854 56.5595 82.3163 55.4466 82.3163 54.2563C82.3009 53.0815 81.8386 51.9685 80.9296 51.072Z" fill="white"/>
</g>
</g>
<defs>
<clipPath id="clip0">
<rect width="550" height="89" fill="white"/>
</clipPath>
<clipPath id="clip1">
<rect width="58.5484" height="68.0147" fill="white" transform="translate(23.9529 11.036)"/>
</clipPath>
</defs>
</svg>
