<svg xmlns="http://www.w3.org/2000/svg" viewBox="0 0 60.32 64"><defs><style>.cls-1{fill:#fff;}.cls-2{fill:none;}</style></defs><g id="레이어_2" data-name="레이어 2"><g id="레이어_1-2" data-name="레이어 1"><path class="cls-1" d="M31.14,45.52a1,1,0,0,0,0-2H19.62a3,3,0,0,1-3-3V21.47a3,3,0,0,1,3-2.95H38.71a3,3,0,0,1,2.95,2.95v8.68a1,1,0,1,0,2,0V21.47a5,5,0,0,0-4.95-4.95H19.62a5,5,0,0,0-5,4.95V40.56a5,5,0,0,0,5,5Z"/><path class="cls-1" d="M37.31,29.89a.9.9,0,0,0-.9-.9H21.91a.9.9,0,1,0,0,1.8h14.5A.9.9,0,0,0,37.31,29.89Z"/><path class="cls-1" d="M21.91,34.36a.9.9,0,1,0,0,1.8h6a.9.9,0,1,0,0-1.8Z"/><path class="cls-1" d="M36.41,23.61H21.91a.91.91,0,0,0,0,1.81h14.5a.91.91,0,0,0,0-1.81Z"/><path class="cls-1" d="M44.25,33.45,37,41.66l-4.25-4.25a1,1,0,0,0-1.42,0,1,1,0,0,0,0,1.41L37,44.57l8.71-9.79a1,1,0,0,0-1.5-1.33Z"/><rect class="cls-2" width="60.32" height="64"/></g></g></svg>