<svg xmlns="http://www.w3.org/2000/svg" viewBox="0 0 60.32 64"><defs><style>.cls-1{fill:#fff;}.cls-2{fill:none;}</style></defs><g id="레이어_2" data-name="레이어 2"><g id="레이어_1-2" data-name="레이어 1"><path class="cls-1" d="M44.19,26.45H39.12V22a3.85,3.85,0,0,0-3.84-3.84H16.65A3.84,3.84,0,0,0,12.82,22v9.24A3.85,3.85,0,0,0,16.41,35v3.4a1.3,1.3,0,0,0,.77,1.2,1.24,1.24,0,0,0,.56.13,1.33,1.33,0,0,0,.85-.31L23.88,35h2.35v1.91a3.33,3.33,0,0,0,3.33,3.33h8.9l4,3.34a1.27,1.27,0,0,0,.85.31,1.33,1.33,0,0,0,1.33-1.33V40.23a3.32,3.32,0,0,0,2.86-3.29V29.77A3.32,3.32,0,0,0,44.19,26.45ZM23.71,33.23a1.35,1.35,0,0,0-.86.31l-4.64,3.88V34.56a1.34,1.34,0,0,0-1.33-1.33h-.23a2,2,0,0,1-2-2V22a2,2,0,0,1,2-2H35.28a2,2,0,0,1,2,2v4.5H29.56a3.33,3.33,0,0,0-3.33,3.32v3.46Zm22,3.71a1.53,1.53,0,0,1-1.52,1.53,1.34,1.34,0,0,0-1.34,1.33v1.79l-3.36-2.81a1.33,1.33,0,0,0-.86-.31H29.56A1.54,1.54,0,0,1,28,36.94V29.77a1.53,1.53,0,0,1,1.53-1.52H44.19a1.52,1.52,0,0,1,1.52,1.52Z"/><path class="cls-1" d="M19,25.22H33a.75.75,0,0,0,0-1.5H19a.75.75,0,0,0,0,1.5Z"/><path class="cls-1" d="M24.91,28.18h-6a.75.75,0,0,0,0,1.5h6a.75.75,0,1,0,0-1.5Z"/><path class="cls-1" d="M41.32,31.3a.9.9,0,0,0-.9.9v2a.9.9,0,1,0,1.8,0v-2A.9.9,0,0,0,41.32,31.3Z"/><path class="cls-1" d="M37.08,31.3a.9.9,0,0,0-.9.9v2a.9.9,0,0,0,1.8,0v-2A.9.9,0,0,0,37.08,31.3Z"/><path class="cls-1" d="M32.84,31.3a.9.9,0,0,0-.9.9v2a.9.9,0,1,0,1.8,0v-2A.9.9,0,0,0,32.84,31.3Z"/><rect class="cls-2" width="60.32" height="64"/></g></g></svg>