<svg xmlns="http://www.w3.org/2000/svg" viewBox="0 0 60.32 64"><defs><style>.cls-1{fill:#fff;}.cls-2{fill:none;}</style></defs><g id="레이어_2" data-name="레이어 2"><g id="레이어_1-2" data-name="레이어 1"><path class="cls-1" d="M18.62,45.69a1,1,0,0,0,1-1V41.88a10.58,10.58,0,0,1,21.15,0v2.85a1,1,0,1,0,1.92,0v-3.8a.94.94,0,0,0-.07-.34,12.43,12.43,0,0,0-9.15-10.65,7.58,7.58,0,0,0,3.93-6.63,7.69,7.69,0,1,0-11.11,6.81,12.45,12.45,0,0,0-8.52,10.43.92.92,0,0,0-.08.38v3.8A1,1,0,0,0,18.62,45.69Zm5.29-22.38A5.77,5.77,0,1,1,29.68,29,5.76,5.76,0,0,1,23.91,23.31Z"/><rect class="cls-2" width="60.32" height="64"/></g></g></svg>