<svg xmlns="http://www.w3.org/2000/svg" viewBox="0 0 24.89 24.88"><defs><style>.cls-1{fill:#fff;}</style></defs><g id="레이어_2" data-name="레이어 2"><g id="레이어_1-2" data-name="레이어 1"><path class="cls-1" d="M24.45,22.32,19.8,17.68a11,11,0,0,0-1-14.46A11,11,0,0,0,11,0h0A11,11,0,0,0,3.23,18.81,10.93,10.93,0,0,0,11,22a11.07,11.07,0,0,0,6.66-2.23l4.65,4.64a1.46,1.46,0,0,0,1.06.44,1.47,1.47,0,0,0,1.06-.44A1.51,1.51,0,0,0,24.45,22.32ZM19,11A8,8,0,0,1,5.35,16.69,8,8,0,0,1,11,3a8,8,0,0,1,8,8Z"/></g></g></svg>