<svg xmlns="http://www.w3.org/2000/svg" viewBox="0 0 60.32 64"><defs><style>.cls-1{fill:#fff;}.cls-2{fill:none;}</style></defs><g id="레이어_2" data-name="레이어 2"><g id="레이어_1-2" data-name="레이어 1"><polygon class="cls-1" points="18.66 35.6 21.26 35.6 21.26 42.39 23.23 42.39 23.23 35.6 25.82 35.6 25.82 33.87 18.66 33.87 18.66 35.6"/><path class="cls-1" d="M33.43,35.17a4,4,0,0,0-1.33-1,3.9,3.9,0,0,0-1.72-.37,4.16,4.16,0,0,0-3.06,1.3,4.57,4.57,0,0,0-.88,1.38,4.22,4.22,0,0,0-.32,1.62,4.41,4.41,0,0,0,.3,1.6,4.39,4.39,0,0,0,2.19,2.38,4.06,4.06,0,0,0,1.73.36A4.1,4.1,0,0,0,32,42.1a4.36,4.36,0,0,0,1.35-1,4.3,4.3,0,0,0,.89-1.38,4.21,4.21,0,0,0,.31-1.62,4.29,4.29,0,0,0-.3-1.57A4.48,4.48,0,0,0,33.43,35.17Zm-1,3.88a2.58,2.58,0,0,1-.41.83,2.13,2.13,0,0,1-.7.6,2.07,2.07,0,0,1-1,.22,2,2,0,0,1-1-.22,2,2,0,0,1-.71-.57,2.45,2.45,0,0,1-.42-.82,3.11,3.11,0,0,1-.15-1,3.34,3.34,0,0,1,.14-.94,2.5,2.5,0,0,1,.42-.83,2.07,2.07,0,0,1,.7-.58,2.1,2.1,0,0,1,1-.22,2.08,2.08,0,0,1,.95.21,1.87,1.87,0,0,1,.71.57,2.48,2.48,0,0,1,.43.82,3,3,0,0,1,.15,1A3.34,3.34,0,0,1,32.45,39.05Z"/><path class="cls-1" d="M41.37,34.78a2.72,2.72,0,0,0-.88-.66,2.46,2.46,0,0,0-1.12-.25H35.73v8.52h2V39.64h1.73a2.43,2.43,0,0,0,1.43-.41,3,3,0,0,0,1.29-2.47,2.92,2.92,0,0,0-.2-1A3,3,0,0,0,41.37,34.78ZM40,37.4a1,1,0,0,1-.31.4.8.8,0,0,1-.42.13H37.7V35.6h1.54a.85.85,0,0,1,.43.12.93.93,0,0,1,.35.38,1.39,1.39,0,0,1,.14.65A1.57,1.57,0,0,1,40,37.4Z"/><polygon class="cls-1" points="20.64 27.07 40.02 27.07 30.33 16.28 20.64 27.07"/><rect class="cls-2" width="60.32" height="64"/></g></g></svg>