<svg xmlns="http://www.w3.org/2000/svg" viewBox="0 0 55.57 55.57"><defs><style>.cls-1{fill:none;}.cls-2{fill:#fff;}</style></defs><g id="레이어_2" data-name="레이어 2"><g id="Layer_2" data-name="Layer 2"><circle class="cls-1" cx="27.78" cy="27.78" r="27.78"/><path class="cls-2" d="M37.68,22.79A2.61,2.61,0,0,0,35.85,21c-1.61-.43-8.07-.43-8.07-.43s-6.46,0-8.07.44a2.57,2.57,0,0,0-1.82,1.84,26.62,26.62,0,0,0-.44,5,26.68,26.68,0,0,0,.44,5,2.53,2.53,0,0,0,1.82,1.81c1.61.43,8.07.43,8.07.43s6.46,0,8.07-.43a2.57,2.57,0,0,0,1.83-1.81,27.28,27.28,0,0,0,.43-5,27.37,27.37,0,0,0-.43-5Zm-12,8.08V24.72l5.4,3.07-5.4,3.08Z"/></g></g></svg>