<svg xmlns="http://www.w3.org/2000/svg" viewBox="0 0 55.57 55.57"><defs><style>.cls-1{fill:none;}.cls-2{fill:#fff;}</style></defs><g id="레이어_2" data-name="레이어 2"><g id="Layer_2" data-name="Layer 2"><circle class="cls-1" cx="27.78" cy="27.78" r="27.78"/><path class="cls-2" d="M37.79,27.78a10,10,0,0,1-13,9.56,11.11,11.11,0,0,0,1.24-2.62c.13-.47.63-2.38.63-2.38A2.66,2.66,0,0,0,29,33.49c3,0,5.19-2.78,5.19-6.23A5.87,5.87,0,0,0,28,21.49c-4.32,0-6.61,2.89-6.61,6.05,0,1.47.78,3.3,2,3.88.19.09.29,0,.33-.14L24,30.15a.32.32,0,0,0-.07-.29,3.9,3.9,0,0,1-.74-2.28,4.33,4.33,0,0,1,4.52-4.34,4,4,0,0,1,4.18,4.07c0,2.71-1.37,4.58-3.14,4.58a1.45,1.45,0,0,1-1.49-1.8,19.46,19.46,0,0,0,.83-3.34,1.25,1.25,0,0,0-1.27-1.4c-1,0-1.81,1-1.81,2.42a3.62,3.62,0,0,0,.3,1.49s-1,4.19-1.17,5a9.54,9.54,0,0,0,0,2.87,10,10,0,1,1,13.65-9.32Z"/></g></g></svg>