<svg xmlns="http://www.w3.org/2000/svg" viewBox="0 0 55.57 55.57"><defs><style>.cls-1{fill:none;}.cls-2{fill:#fff;}</style></defs><g id="레이어_2" data-name="레이어 2"><g id="Layer_2" data-name="Layer 2"><circle class="cls-1" cx="27.78" cy="27.78" r="27.78"/><path class="cls-2" d="M27.78,23.15a4.64,4.64,0,1,0,4.64,4.63A4.63,4.63,0,0,0,27.78,23.15Zm0,7.65a3,3,0,1,1,3-3,3,3,0,0,1-3,3ZM33.69,23a1.08,1.08,0,1,1-1.08-1.08A1.08,1.08,0,0,1,33.69,23Zm3.07,1.09a5,5,0,0,0-5.25-5.24c-1.49-.09-6-.09-7.46,0a5.39,5.39,0,0,0-3.79,1.45,5.41,5.41,0,0,0-1.46,3.79c-.08,1.49-.08,6,0,7.46a5,5,0,0,0,5.25,5.25c1.5.08,6,.08,7.46,0a5,5,0,0,0,5.25-5.25c.09-1.49.09-6,0-7.46Zm-1.93,9.06a3,3,0,0,1-1.72,1.72c-1.19.47-4,.36-5.33.36s-4.14.11-5.32-.36a3,3,0,0,1-1.72-1.72c-.48-1.19-.37-4-.37-5.33s-.1-4.14.37-5.33a3,3,0,0,1,1.72-1.72c1.19-.47,4-.36,5.32-.36s4.15-.1,5.33.36a3.09,3.09,0,0,1,1.72,1.72c.47,1.19.37,4,.37,5.33S35.3,31.93,34.83,33.11Z"/></g></g></svg>