<svg xmlns="http://www.w3.org/2000/svg" viewBox="0 0 55.57 55.57"><defs><style>.cls-1{fill:none;}.cls-2{fill:#fff;}</style></defs><g id="레이어_2" data-name="레이어 2"><g id="Layer_2" data-name="Layer 2"><circle class="cls-1" cx="27.78" cy="27.78" r="27.78"/><path class="cls-2" d="M35.36,23.9c0,.17,0,.34,0,.51a11.12,11.12,0,0,1-17.12,9.36,7.21,7.21,0,0,0,.94,0A7.82,7.82,0,0,0,24,32.15a3.89,3.89,0,0,1-3.65-2.71,4.44,4.44,0,0,0,.74.06,4.25,4.25,0,0,0,1-.13A3.92,3.92,0,0,1,19,25.53v-.05a3.91,3.91,0,0,0,1.77.5,3.9,3.9,0,0,1-1.21-5.23,11.1,11.1,0,0,0,8.06,4.09,4.41,4.41,0,0,1-.1-.89,3.92,3.92,0,0,1,6.77-2.68,7.67,7.67,0,0,0,2.48-.94,3.87,3.87,0,0,1-1.72,2.15,7.71,7.71,0,0,0,2.25-.6,8.54,8.54,0,0,1-2,2Z"/></g></g></svg>