<svg xmlns="http://www.w3.org/2000/svg" viewBox="0 0 60.32 64"><defs><style>.cls-1{fill:#fff;}.cls-2{fill:none;}</style></defs><g id="레이어_2" data-name="레이어 2"><g id="레이어_1-2" data-name="레이어 1"><path class="cls-1" d="M30.16,43.36l.69-.81c.33-.39,8.07-9.59,9.29-15.64A10.4,10.4,0,1,0,19.76,24a10.16,10.16,0,0,0,.42,2.9c1.19,6.05,9,15.29,9.3,15.68ZM21.56,24A8.6,8.6,0,1,1,38.4,26.44l0,.08c-.91,4.6-6.29,11.62-8.22,14-1.93-2.41-7.31-9.44-8.23-14.11A8.36,8.36,0,0,1,21.56,24Z"/><path class="cls-1" d="M33.06,24a2.9,2.9,0,1,0-2.9,2.9A2.9,2.9,0,0,0,33.06,24Z"/><path class="cls-1" d="M14.71,42.47c0,3.86,8,6,15.45,6s15.45-2.09,15.45-6c0-2.15-2.55-4-7-5a1,1,0,0,0-.72.11.91.91,0,0,0-.42.59,1,1,0,0,0,.7,1.15c3.31.79,5.53,2.07,5.53,3.19,0,1.87-5.92,4.05-13.55,4.05s-13.55-2.18-13.55-4.05c0-1.12,2.23-2.4,5.54-3.19a1,1,0,0,0,.7-1.15,1,1,0,0,0-.43-.59,1,1,0,0,0-.72-.11C17.26,38.49,14.71,40.32,14.71,42.47Z"/><rect class="cls-2" width="60.32" height="64"/></g></g></svg>